# xmcd
#
# Track frame offsets:
#	150
#	16788
#	33213
#	52226
#	65838
#	77614
#	92838
#	116614
#	133974
#	147168
#	162847
#	178872
#	194538
#	207288
#	222063
#
# Disc length: 3221 seconds
#
# Revision: 1
# Processed by: cddbd v1.5.2PL0 Copyright (c) Steve Scherf et al.
# Submitted via: audiograbber 1.83.01
#
DISCID=dc0c930f
DTITLE=Danny And The WonderBras - Rock It
DYEAR=2015
DGENRE=Rockabilly
TTITLE0=Rock It
TTITLE1=You Took My Sweet Sweet Girl
TTITLE2=Hangover Blues
TTITLE3=You Got It Girl
TTITLE4=The Race Is On
TTITLE5=Lonesome Road
TTITLE6=Hell And I Want You
TTITLE7=Waitin' For The Take-Off
TTITLE8=Black Rose
TTITLE9=Dear One
TTITLE10=You
TTITLE11=Tulane
TTITLE12=Caroline
TTITLE13=I Got Fever
TTITLE14=Me And Bobby McGee
EXTD=
EXTT0=
EXTT1=
EXTT2=
EXTT3=
EXTT4=
EXTT5=
EXTT6=
EXTT7=
EXTT8=
EXTT9=
EXTT10=
EXTT11=
EXTT12=
EXTT13=
EXTT14=
PLAYORDER=
